<svg xmlns="http://www.w3.org/2000/svg" version="1.1" xmlns:xlink="http://www.w3.org/1999/xlink" xmlns:svgjs="http://svgjs.dev/svgjs" width="1500" height="674" viewBox="0 0 1500 674"><g transform="matrix(1,0,0,1,-0.9090909090909918,0.5333786538963636)"><svg viewBox="0 0 396 178" data-background-color="#ffffff" preserveAspectRatio="xMidYMid meet" height="674" width="1500" xmlns="http://www.w3.org/2000/svg" xmlns:xlink="http://www.w3.org/1999/xlink"><g id="tight-bounds" transform="matrix(1,0,0,1,0.2400000000000091,-0.14086261185987325)"><svg viewBox="0 0 395.52 178.28172522371975" height="178.28172522371975" width="395.52"><g><svg viewBox="0 0 395.52 178.28172522371975" height="178.28172522371975" width="395.52"><g><svg viewBox="0 0 694.904771868959 313.2302325925197" height="178.28172522371975" width="395.52"><g><rect width="10.17931601203085" height="313.2302325925197" x="267.82425694166403" y="0" fill="#6c757d" opacity="1" stroke-width="0" stroke="transparent" fill-opacity="1" class="rect-qz-0" data-fill-palette-color="primary" rx="1%" id="qz-0" data-palette-color="#6c757d"></rect></g><g transform="matrix(1,0,0,1,304.6509970689589,0.7791796830659621)"><svg viewBox="0 0 390.25377480000003 311.6718732263878" height="311.6718732263878" width="390.25377480000003"><g id="textblocktransform"><svg viewBox="0 0 390.25377480000003 311.6718732263878" height="311.6718732263878" width="390.25377480000003" id="textblock"><g><svg viewBox="0 0 390.25377480000003 245.672304" height="245.672304" width="390.25377480000003"><g transform="matrix(1,0,0,1,0,0)"><svg width="390.25377480000003" viewBox="3.249999999999994 -31.650000000000002 117.55 68.9" height="245.672304" data-palette-color="#6c757d"><svg></svg><svg></svg><g class="wordmark-text-0" data-fill-palette-color="primary" id="text-0"><path d="M8.85-29c0 0.967-0.033 2.25-0.1 3.85v0l-0.05 3.25c0 3.167 0.233 5.817 0.7 7.95v0c0.667 3 1.667 5.317 3 6.95v0c1.233 1.433 2.75 2.15 4.55 2.15v0c1.4 0 2.65-0.427 3.75-1.28 1.1-0.847 1.95-1.903 2.55-3.17v0c1-2.067 1.5-4.617 1.5-7.65v0c0-1.833-0.117-4-0.35-6.5v0c-0.2-2.8-0.3-4.9-0.3-6.3v0c0-0.733 0.433-1.21 1.3-1.43 0.867-0.213 1.767-0.32 2.7-0.32v0c0.333 0 0.717 0.217 1.15 0.65 0.433 0.433 0.65 0.9 0.65 1.4v0c0 1-0.05 1.95-0.15 2.85v0c-0.067 1-0.1 1.7-0.1 2.1v0c0 1.267 0.067 3.033 0.2 5.3v0c0.033 0.567 0.067 1.25 0.1 2.05 0.033 0.8 0.05 1.717 0.05 2.75v0c0 2.267-0.54 4.523-1.62 6.77-1.087 2.253-2.597 4.103-4.53 5.55-1.933 1.453-4.117 2.18-6.55 2.18v0c-3.733 0-6.65-1.21-8.75-3.63-2.1-2.413-3.533-5.537-4.3-9.37v0c-0.433-2.2-0.707-4.5-0.82-6.9-0.12-2.4-0.18-5.617-0.18-9.65v0c0-0.533 0.26-1.033 0.78-1.5 0.513-0.467 1.07-0.7 1.67-0.7v0c2.1 0 3.15 0.883 3.15 2.65zM67.35-1.75c-0.5-0.933-0.817-1.977-0.95-3.13-0.133-1.147-0.2-2.737-0.2-4.77v0c0-1.933-0.267-3.617-0.8-5.05-0.533-1.433-1.633-2.15-3.3-2.15v0c-0.633 0-1.257 0.19-1.87 0.57-0.62 0.387-1.08 0.863-1.38 1.43v0c-0.467 0.9-0.783 1.873-0.95 2.92-0.167 1.053-0.25 2.263-0.25 3.63v0c0 0.867 0.05 1.75 0.15 2.65v0c0 0.267 0.027 0.69 0.08 1.27 0.047 0.587 0.07 1.113 0.07 1.58v0c0 2-0.7 3-2.1 3v0c-1.833 0-2.8-0.967-2.9-2.9v0c0-1.367 0.017-2.1 0.05-2.2v0-2.15c0-1.2-0.05-2.367-0.15-3.5-0.1-1.133-0.217-1.983-0.35-2.55v0c-0.3-1.1-0.69-1.95-1.17-2.55-0.487-0.6-1.247-0.9-2.28-0.9v0c-1.467 0-2.65 0.633-3.55 1.9v0c-0.633 1-1.05 2.217-1.25 3.65v0c-0.2 1.833-0.34 3.273-0.42 4.32-0.087 1.053-0.13 2.263-0.13 3.63v0c0 0.967-0.157 1.75-0.47 2.35-0.32 0.6-0.913 0.9-1.78 0.9v0c-0.633 0-1.29-0.177-1.97-0.53-0.687-0.347-1.03-0.82-1.03-1.42v0c0-0.633 0.067-1.267 0.2-1.9v0c0.3-1.9 0.45-5.3 0.45-10.2v0c0-0.8-0.193-1.577-0.58-2.33-0.38-0.747-0.837-1.12-1.37-1.12v0c-0.133 0-0.377 0.067-0.73 0.2-0.347 0.133-0.603 0.2-0.77 0.2v0c-0.433 0-0.823-0.2-1.17-0.6-0.353-0.4-0.53-0.733-0.53-1v0c0-0.833 0.407-1.543 1.22-2.13 0.82-0.58 1.68-0.87 2.58-0.87v0c1.233 0 2.283 0.383 3.15 1.15 0.867 0.767 1.533 1.833 2 3.2v0c0.767-1.333 1.8-2.41 3.1-3.23 1.3-0.813 2.75-1.22 4.35-1.22v0c1 0 1.807 0.123 2.42 0.37 0.62 0.253 1.13 0.603 1.53 1.05 0.4 0.453 0.917 1.13 1.55 2.03v0c0.833-1.067 1.91-1.9 3.23-2.5 1.313-0.6 2.67-0.9 4.07-0.9v0c1.667 0 3.167 0.673 4.5 2.02 1.333 1.353 2.233 2.913 2.7 4.68v0c0.233 0.9 0.35 2.633 0.35 5.2v0l0.2 2.9c0.167 1.733 0.733 2.783 1.7 3.15v0c1.133 0.333 1.7 0.683 1.7 1.05v0c0 0.8-0.2 1.383-0.6 1.75v0c-0.3 0.2-0.717 0.417-1.25 0.65-0.533 0.233-0.95 0.35-1.25 0.35v0c-1.8 0-3.083-0.65-3.85-1.95zM100.6-2.4c0 0.733-0.39 1.35-1.17 1.85-0.787 0.5-1.513 0.75-2.18 0.75v0c-1.267 0-2.273-0.16-3.02-0.48-0.753-0.313-1.447-0.903-2.08-1.77v0c-0.867 0.767-2.05 1.34-3.55 1.72-1.5 0.387-2.883 0.58-4.15 0.58v0c-2.067 0-3.767-0.56-5.1-1.68-1.333-1.113-2-2.753-2-4.92v0c0-0.933 0.25-1.793 0.75-2.58 0.5-0.78 1.183-1.47 2.05-2.07v0c0.967-0.633 2.067-1.127 3.3-1.48 1.233-0.347 2.517-0.52 3.85-0.52v0c0.7 0 1.533 0.133 2.5 0.4 0.967 0.267 1.717 0.55 2.25 0.85v0-0.8c0-1.8-0.433-3.043-1.3-3.73-0.867-0.68-2.267-1.02-4.2-1.02v0c-0.567 0-1.123 0.117-1.67 0.35-0.553 0.233-1.18 0.55-1.88 0.95v0c-0.933 0.5-1.817 0.75-2.65 0.75v0c-0.3 0-0.583-0.21-0.85-0.63-0.267-0.413-0.4-0.787-0.4-1.12v0c0-0.967 0.46-1.8 1.38-2.5 0.913-0.7 2.003-1.227 3.27-1.58 1.267-0.347 2.4-0.52 3.4-0.52v0c1 0 2.15 0.19 3.45 0.57 1.3 0.387 2.367 0.913 3.2 1.58v0c1 0.867 1.777 1.873 2.33 3.02 0.547 1.153 0.82 2.413 0.82 3.78v0c0 0.433-0.033 1.083-0.1 1.95v0c-0.067 0.933-0.1 1.733-0.1 2.4v0c0 0.3-0.033 0.75-0.1 1.35v0c-0.067 0.733-0.1 1.317-0.1 1.75v0c0 0.4 0.15 0.743 0.45 1.03 0.3 0.28 0.65 0.42 1.05 0.42v0l1.4-0.05c0.367 0 0.65 0.133 0.85 0.4 0.2 0.267 0.3 0.6 0.3 1zM84.5-3.7c1.433 0 2.633-0.15 3.6-0.45 0.967-0.3 2.133-0.85 3.5-1.65v0c0.133-0.567 0.217-1.317 0.25-2.25v0c-1.833-0.867-3.35-1.3-4.55-1.3v0c-1.367 0-2.583 0.25-3.65 0.75-1.067 0.5-1.6 1.383-1.6 2.65v0c0 0.633 0.267 1.167 0.8 1.6 0.533 0.433 1.083 0.65 1.65 0.65zM111.3-2c0 0.567-0.217 1.067-0.65 1.5-0.433 0.433-0.967 0.65-1.6 0.65v0c-1 0-1.733-0.193-2.2-0.58-0.467-0.38-0.7-1.087-0.7-2.12v0c0-1.233-0.033-2.85-0.1-4.85v0c-0.067-1.667-0.1-3.067-0.1-4.2v0c0-0.533 0.033-1.233 0.1-2.1v0c0.067-0.8 0.1-1.4 0.1-1.8v0c-0.1-0.633-0.35-1.157-0.75-1.57-0.4-0.42-0.917-0.63-1.55-0.63v0c-0.3 0-0.55-0.143-0.75-0.43-0.2-0.28-0.3-0.57-0.3-0.87v0c0-0.767 0.307-1.35 0.92-1.75 0.62-0.4 1.363-0.6 2.23-0.6v0c1.8 0 3.05 1.067 3.75 3.2v0c0.867-1 1.857-1.81 2.97-2.43 1.12-0.613 2.197-0.92 3.23-0.92v0c1.233 0 2.36 0.333 3.38 1 1.013 0.667 1.52 1.567 1.52 2.7v0c0 0.633-0.277 1.283-0.83 1.95-0.547 0.667-1.103 1-1.67 1v0c-0.3 0-0.557-0.077-0.77-0.23-0.22-0.147-0.48-0.37-0.78-0.67v0c-0.333-0.333-0.617-0.577-0.85-0.73-0.233-0.147-0.5-0.22-0.8-0.22v0c-0.533 0-1.033 0.083-1.5 0.25-0.467 0.167-0.783 0.367-0.95 0.6v0c-0.533 0.833-0.927 1.583-1.18 2.25-0.247 0.667-0.37 1.383-0.37 2.15v0c0 0.567-0.017 1.017-0.05 1.35v0l-0.05 2.85c0 0.433 0.017 0.917 0.05 1.45 0.033 0.533 0.067 0.933 0.1 1.2v0c0.1 0.9 0.15 1.767 0.15 2.6z" fill="#6c757d" fill-rule="nonzero" stroke="none" stroke-width="1" stroke-linecap="butt" stroke-linejoin="miter" stroke-miterlimit="10" stroke-dasharray="" stroke-dashoffset="0" font-family="none" font-weight="none" font-size="none" text-anchor="none" style="mix-blend-mode: normal" data-fill-palette-color="primary" opacity="1"></path><path transform="translate(0,37)" d="M30.55-3.8c0.333 0.167 0.593 0.383 0.78 0.65 0.18 0.267 0.27 0.65 0.27 1.15v0c0 0.633-0.24 1.14-0.72 1.52-0.487 0.387-1.047 0.58-1.68 0.58v0c-0.733 0-1.567-0.183-2.5-0.55v0c-1.867-0.833-3.69-2.377-5.47-4.63-1.787-2.247-3.93-5.487-6.43-9.72v0c-1.9 1.467-3.833 2.833-5.8 4.1v0c0 0.7 0.027 1.507 0.08 2.42 0.047 0.92 0.07 1.597 0.07 2.03v0c0.067 1.933 0.1 3.217 0.1 3.85v0c0 0.567-0.183 1.107-0.55 1.62-0.367 0.52-0.917 0.78-1.65 0.78v0c-1.067 0-1.833-0.177-2.3-0.53-0.467-0.347-0.75-0.853-0.85-1.52v0c-0.267-1.667-0.4-3.267-0.4-4.8v0c0-1.733 0.133-4.233 0.4-7.5v0c0.267-3.133 0.4-5.483 0.4-7.05v0c0-0.6-0.033-1.467-0.1-2.6v0c-0.033-0.9-0.133-1.733-0.3-2.5v0c-0.133-1.067-0.2-1.817-0.2-2.25v0c0-1.067 0.233-1.833 0.7-2.3 0.467-0.467 1.183-0.7 2.15-0.7v0c0.733 0 1.343 0.207 1.83 0.62 0.48 0.42 0.753 0.98 0.82 1.68v0c0.167 2.833 0.25 5.017 0.25 6.55v0c-0.033 0.833-0.09 2.023-0.17 3.57-0.087 1.553-0.163 2.53-0.23 2.93v0c1.133-0.633 3.36-2.46 6.68-5.48 3.313-3.013 5.67-5.387 7.07-7.12v0l0.65-0.75c0.533-0.7 0.983-1.183 1.35-1.45 0.367-0.267 0.867-0.4 1.5-0.4v0c0.633 0 1.21 0.207 1.73 0.62 0.513 0.42 0.77 0.913 0.77 1.48v0c0 1.1-0.567 2.217-1.7 3.35v0c-2.767 2.867-5.533 5.533-8.3 8v0c3.9 7.3 7.817 12.083 11.75 14.35zM40.65-31.7c0 0.867-0.017 1.873-0.05 3.02-0.033 1.153-0.067 2.03-0.1 2.63v0c-0.1 1.7-0.15 3.4-0.15 5.1v0c0 1.267 0.05 2.583 0.15 3.95v0c1.033-1.5 2.15-2.6 3.35-3.3 1.2-0.7 2.65-1.05 4.35-1.05v0c1.233 0 2.383 0.55 3.45 1.65 1.067 1.1 1.75 2.383 2.05 3.85v0c0.1 1.3 0.15 2.883 0.15 4.75v0c0 1.2 0.067 2.767 0.2 4.7v0c0.067 0.733 0.26 1.417 0.58 2.05 0.313 0.633 0.77 0.95 1.37 0.95v0c0.3 0 0.543-0.017 0.73-0.05 0.18-0.033 0.353-0.05 0.52-0.05v0c0.467 0 0.793 0.117 0.98 0.35 0.18 0.233 0.27 0.567 0.27 1v0c0 0.8-0.4 1.4-1.2 1.8-0.8 0.4-1.533 0.6-2.2 0.6v0c-2.4 0-4.05-1-4.95-3v0c-0.5-1.133-0.817-2.61-0.95-4.43-0.133-1.813-0.2-3.937-0.2-6.37v0c0-2.4-0.817-3.6-2.45-3.6v0c-0.9 0-1.807 0.473-2.72 1.42-0.92 0.953-1.68 2.203-2.28 3.75-0.6 1.553-0.9 3.163-0.9 4.83v0l0.05 5.2c0 0.733-0.283 1.273-0.85 1.62-0.567 0.353-1.1 0.53-1.6 0.53v0c-0.733 0-1.4-0.227-2-0.68-0.6-0.447-0.9-0.953-0.9-1.52v0c0.233-2.5 0.35-6.683 0.35-12.55v0c0-1.067-0.083-5.017-0.25-11.85v0l-0.15-4.6c0-0.733 0.333-1.377 1-1.93 0.667-0.547 1.417-0.82 2.25-0.82v0c0.733 0 1.267 0.167 1.6 0.5 0.333 0.333 0.5 0.85 0.5 1.55zM84.25-2.4c0 0.733-0.39 1.35-1.17 1.85-0.787 0.5-1.513 0.75-2.18 0.75v0c-1.267 0-2.273-0.16-3.02-0.48-0.753-0.313-1.447-0.903-2.08-1.77v0c-0.867 0.767-2.05 1.34-3.55 1.72-1.5 0.387-2.883 0.58-4.15 0.58v0c-2.067 0-3.767-0.56-5.1-1.68-1.333-1.113-2-2.753-2-4.92v0c0-0.933 0.25-1.793 0.75-2.58 0.5-0.78 1.183-1.47 2.05-2.07v0c0.967-0.633 2.067-1.127 3.3-1.48 1.233-0.347 2.517-0.52 3.85-0.52v0c0.7 0 1.533 0.133 2.5 0.4 0.967 0.267 1.717 0.55 2.25 0.85v0-0.8c0-1.8-0.433-3.043-1.3-3.73-0.867-0.68-2.267-1.02-4.2-1.02v0c-0.567 0-1.123 0.117-1.67 0.35-0.553 0.233-1.18 0.55-1.88 0.95v0c-0.933 0.5-1.817 0.75-2.65 0.75v0c-0.3 0-0.583-0.21-0.85-0.63-0.267-0.413-0.4-0.787-0.4-1.12v0c0-0.967 0.46-1.8 1.38-2.5 0.913-0.7 2.003-1.227 3.27-1.58 1.267-0.347 2.4-0.52 3.4-0.52v0c1 0 2.15 0.19 3.45 0.57 1.3 0.387 2.367 0.913 3.2 1.58v0c1 0.867 1.777 1.873 2.33 3.02 0.547 1.153 0.82 2.413 0.82 3.78v0c0 0.433-0.033 1.083-0.1 1.95v0c-0.067 0.933-0.1 1.733-0.1 2.4v0c0 0.3-0.033 0.75-0.1 1.35v0c-0.067 0.733-0.1 1.317-0.1 1.75v0c0 0.4 0.15 0.743 0.45 1.03 0.3 0.28 0.65 0.42 1.05 0.42v0l1.4-0.05c0.367 0 0.65 0.133 0.85 0.4 0.2 0.267 0.3 0.6 0.3 1zM68.15-3.7c1.433 0 2.633-0.15 3.6-0.45 0.967-0.3 2.133-0.85 3.5-1.65v0c0.133-0.567 0.217-1.317 0.25-2.25v0c-1.833-0.867-3.35-1.3-4.55-1.3v0c-1.367 0-2.583 0.25-3.65 0.75-1.067 0.5-1.6 1.383-1.6 2.65v0c0 0.633 0.267 1.167 0.8 1.6 0.533 0.433 1.083 0.65 1.65 0.65zM110.35-3.85c0.167 0.067 0.433 0.15 0.8 0.25 0.367 0.1 0.633 0.2 0.8 0.3 0.167 0.1 0.25 0.25 0.25 0.45v0c0.033 0.8-0.257 1.457-0.87 1.97-0.62 0.52-1.347 0.78-2.18 0.78v0c-1.3 0-2.317-0.35-3.05-1.05-0.733-0.7-1.267-1.767-1.6-3.2v0c-0.133-0.567-0.2-1.35-0.2-2.35v0c0-0.567 0.033-1.483 0.1-2.75v0c0.067-1.333 0.1-2.4 0.1-3.2v0c0-1.167-0.323-2.193-0.97-3.08-0.653-0.88-1.563-1.32-2.73-1.32v0c-0.7 0-1.433 0.207-2.2 0.62-0.767 0.42-1.3 0.93-1.6 1.53v0c-0.5 0.967-0.85 2.017-1.05 3.15v0c-0.367 2-0.55 4.083-0.55 6.25v0c0 1.033 0.017 1.833 0.05 2.4v0c0 0.133 0.01 0.39 0.03 0.77 0.013 0.387-0.02 0.737-0.1 1.05-0.087 0.32-0.23 0.613-0.43 0.88v0c-0.167 0.167-0.423 0.31-0.77 0.43-0.353 0.113-0.68 0.17-0.98 0.17v0c-0.467 0-1.05-0.2-1.75-0.6-0.7-0.4-1.1-0.85-1.2-1.35v0l-0.05-0.85c0-0.3 0.033-0.65 0.1-1.05v0c0.4-2.333 0.6-4.367 0.6-6.1v0c0-0.767-0.017-1.367-0.05-1.8v0l-0.05-2.35c0-0.8-0.2-1.577-0.6-2.33-0.4-0.747-0.867-1.12-1.4-1.12v0c-0.167 0-0.4 0.057-0.7 0.17-0.3 0.12-0.55 0.18-0.75 0.18v0c-0.333 0-0.69-0.167-1.07-0.5-0.387-0.333-0.58-0.683-0.58-1.05v0c0-0.7 0.233-1.267 0.7-1.7v0c0.5-0.4 0.993-0.717 1.48-0.95 0.48-0.233 1.037-0.35 1.67-0.35v0c0.533 0 0.967 0.05 1.3 0.15 0.333 0.1 0.783 0.317 1.35 0.65v0c0.3 0.167 0.65 0.533 1.05 1.1 0.4 0.567 0.733 1.367 1 2.4v0c0.867-1.6 1.943-2.727 3.23-3.38 1.28-0.647 2.92-0.97 4.92-0.97v0c0.767 0 1.593 0.25 2.48 0.75 0.88 0.5 1.637 1.083 2.27 1.75v0c0.6 0.733 1.1 1.64 1.5 2.72 0.4 1.087 0.6 2.063 0.6 2.93v0c0 0.5-0.033 1.317-0.1 2.45v0c-0.1 0.9-0.15 1.85-0.15 2.85v0c0 2.333 0.45 3.767 1.35 4.3z" fill="#6c757d" fill-rule="nonzero" stroke="none" stroke-width="1" stroke-linecap="butt" stroke-linejoin="miter" stroke-miterlimit="10" stroke-dasharray="" stroke-dashoffset="0" font-family="none" font-weight="none" font-size="none" text-anchor="none" style="mix-blend-mode: normal" data-fill-palette-color="primary" opacity="1"></path></g></svg></g></svg></g><g transform="matrix(1,0,0,1,0,272.319728115264)"><svg viewBox="0 0 229.11799118508 39.35214511112381" height="39.35214511112381" width="229.11799118508"><g transform="matrix(1,0,0,1,0,0)"><svg width="229.11799118508" viewBox="0.75 -31.85 240.72 41.35" height="39.35214511112381" data-palette-color="#6c757d"><path d="M31.65-1.35L31.65-1.35Q31.65 2 35 2L35 2Q39.5 2 45.85-4.5L45.85-4.5Q51.6-10.3 54.63-16.32 57.65-22.35 57.65-25.5L57.65-25.5Q57.65-26 57.55-26.5L57.55-26.5Q56.45-26.5 55.3-27.65L55.3-27.65 55.3-27.6Q54.55-28.2 54.55-28.83 54.55-29.45 55.05-29.85 55.55-30.25 56.35-30.25 57.15-30.25 57.48-29.63 57.8-29 58.3-28.5 58.8-28 58.75-27.8L58.75-27.8Q59.05-27.35 59.68-27.35 60.3-27.35 61.1-27.95 61.9-28.55 62.38-28.55 62.85-28.55 62.85-28.25L62.85-28.25Q62.85-27.7 61.9-27.2L61.9-27.2Q61.4-26.8 60.7-26.75L60.7-26.75 59.1-26.75Q59.7-24.7 59.7-23.8L59.7-23.8Q59.7-19.8 55.88-13.4 52.05-7 46.05-2.05L46.05-2.05Q40 3.05 35.08 3.05 30.15 3.05 30.15-1.75L30.15-1.75Q30.15-5.55 33.35-12.6L33.35-12.6 36.95-20.45 32.05-16.65Q29.75-14.75 27.38-12.48 25-10.2 19.1-3.1L19.1-3.1 13.3 4Q11.9 5.6 10.8 5.6L10.8 5.6Q9.95 5.6 9.95 4.5 9.95 3.4 10.85 1.65L10.85 1.65 20.5-12.25Q29.25-25.1 29.25-28.55L29.25-28.55Q29.25-30.45 25.75-30.45L25.75-30.45Q21.5-30.45 13.9-25.25L13.9-25.25Q9.8-22.45 6.7-18.23 3.6-14 3.6-11.23 3.6-8.45 7.3-8.45L7.3-8.45Q10.75-8.45 14.4-11.65L14.4-11.65Q15.7-12.75 15.9-12.75 16.1-12.75 16.05-12.4L16.05-12.4Q15.5-10.5 11.98-8.78 8.45-7.05 5.75-7.05L5.75-7.05Q5.05-7.05 4.8-7.1L4.8-7.1 4.75-7.1Q0.75-7.95 0.75-11.05 0.75-14.15 4.2-18.5L4.2-18.5Q10.3-26.2 19.9-29.95L19.9-29.95Q24.85-31.85 28.05-31.85L28.05-31.85Q32-31.85 32-29.25L32-29.25Q32-23.85 18.4-5.8L18.4-5.8Q13.85 0.25 13.8 0.25L13.8 0.25Q13.95 0.25 19.03-5.4 24.1-11.05 28.65-15.05L28.65-15.05Q30.4-16.6 34.7-20.75L34.7-20.75Q36.95-22.85 39.55-24.55L39.55-24.55Q40.2-24.95 41.43-24.95 42.65-24.95 43.1-24.25L43.1-24.25Q38.5-18.55 35.08-11.48 31.65-4.4 31.65-1.35ZM60.75-26.75L60.7-26.75 60.75-26.75ZM59.3 0.65L59.3 0.65Q58.75 0.65 58.3 0.5L58.3 0.5Q55.1-0.4 55.1-3.1L55.1-3.1Q55.1-6.6 59.5-11.2 63.9-15.8 67.4-15.8L67.4-15.8Q68.55-15.8 69.27-15.18 70-14.55 70-13.65L70-13.65Q70-10.85 65.77-8.3 61.55-5.75 58.9-5.75L58.9-5.75Q58.5-5.75 58.2-5.85L58.2-5.85Q57.45-4.5 57.45-3L57.45-3Q57.45-0.4 59.92-0.4 62.4-0.4 66.35-3.75L66.35-3.75Q69.4-6.2 71.55-8.95L71.55-8.95Q72-9.55 72.32-9.55 72.65-9.55 72.65-9.25 72.65-8.95 72.25-8.4L72.25-8.4Q69.55-4.85 65.75-2.1 61.95 0.65 59.3 0.65ZM68.75-13.75L68.75-13.75Q68.75-14.35 67.47-14.35 66.2-14.35 63.85-12.4L63.85-12.4Q60.7-9.8 58.95-6.95L58.95-6.95Q59.25-6.85 59.6-6.85L59.6-6.85Q61.5-6.85 64.67-8.88 67.85-10.9 68.65-13.3L68.65-13.3Q68.75-13.55 68.75-13.75ZM81-12.45L81-12.45Q81-15.85 83.09-15.85L83.09-15.85Q83.3-15.85 83.55-15.8L83.55-15.8Q84.39-15.65 84.39-14.5 84.39-13.35 84-11.6L84-11.6Q83.59-10.3 83.44-9.65L83.44-9.65Q83.59-8.8 84.27-7.48 84.94-6.15 86.12-6.15 87.3-6.15 88.75-7.75L88.75-7.75Q89.05-8.1 89.32-8.1 89.59-8.1 89.62-7.78 89.64-7.45 89.25-6.9L89.25-6.9Q87.69-5.05 86-5.05L86-5.05Q83.55-5.05 82.05-8.65L82.05-8.65Q80.5-5.1 77.64-2.53 74.8 0.05 72 0.05L72 0.05Q69.34 0.05 69.34-3.95L69.34-3.95Q69.34-7.1 75.22-15.55 81.09-24 84.19-24L84.19-24Q84.84-24 85.37-23.6 85.89-23.2 85.89-22.65L85.89-22.65Q85.89-22.7 85.17-21.9 84.44-21.1 81.22-17.6 78-14.1 74.89-9.9 71.8-5.7 71.8-3.4L71.8-3.4Q71.8-2.8 72.12-2.1 72.44-1.4 73.19-1.4L73.19-1.4Q75.39-1.4 78.34-4.8L78.34-4.8Q80.8-7.8 81.34-9.85L81.34-9.85Q81-10.9 81-12.45ZM114.14-15.15L114.14-15.15Q119.74-24.25 121.94-24.25L121.94-24.25Q122.29-24.25 122.92-24.03 123.54-23.8 123.54-23.35L123.54-23.35Q123.54-23.1 123.29-22.7L123.29-22.7Q119.29-17.8 117.34-15.35L117.34-15.35Q111.44-7.9 110.84-4.65L110.84-4.65Q110.69-3.95 110.69-3.25L110.69-3.25Q110.69-1 112.54-1L112.54-1Q116.24-1 122.19-7.85L122.19-7.85Q122.69-8.35 123.04-8.43 123.39-8.5 123.39-8.25 123.39-8 123.09-7.65L123.09-7.65Q117.29-0.7 112.79 0.1L112.79 0.1Q112.54 0.15 112.09 0.15L112.09 0.15Q110.54 0.15 109.77-0.93 108.99-2 108.99-3.25L108.99-3.25Q108.99-4.65 109.54-6.35L109.54-6.35 105.49-2.3Q102.74 0.25 101.17 0.25 99.59 0.25 98.54-0.6L98.54-0.6Q97.29-1.55 97.29-3.25L97.29-3.25Q97.29-6.9 102.39-11.98 107.49-17.05 111.74-17.05L111.74-17.05Q113.14-17.05 113.69-16.3L113.69-16.3Q113.89-16.05 114.14-15.15ZM99.39-2.65L99.39-2.65Q99.39-0.85 100.64-0.85L100.64-0.85Q102.79-0.85 107.79-6.75L107.79-6.75Q108.69-7.8 113.79-14.6L113.79-14.6Q113.44-15.2 112.59-15.2L112.59-15.2Q109.49-15.2 104.44-10.48 99.39-5.75 99.39-2.65ZM123.64 0.65L123.64 0.65Q123.09 0.65 122.64 0.5L122.64 0.5Q119.44-0.4 119.44-3.1L119.44-3.1Q119.44-6.6 123.84-11.2 128.24-15.8 131.74-15.8L131.74-15.8Q132.89-15.8 133.61-15.18 134.34-14.55 134.34-13.65L134.34-13.65Q134.34-10.85 130.11-8.3 125.89-5.75 123.24-5.75L123.24-5.75Q122.84-5.75 122.54-5.85L122.54-5.85Q121.79-4.5 121.79-3L121.79-3Q121.79-0.4 124.26-0.4 126.74-0.4 130.69-3.75L130.69-3.75Q133.74-6.2 135.89-8.95L135.89-8.95Q136.34-9.55 136.66-9.55 136.99-9.55 136.99-9.25 136.99-8.95 136.59-8.4L136.59-8.4Q133.89-4.85 130.09-2.1 126.29 0.65 123.64 0.65ZM133.09-13.75L133.09-13.75Q133.09-14.35 131.81-14.35 130.54-14.35 128.19-12.4L128.19-12.4Q125.04-9.8 123.29-6.95L123.29-6.95Q123.59-6.85 123.94-6.85L123.94-6.85Q125.84-6.85 129.01-8.88 132.19-10.9 132.99-13.3L132.99-13.3Q133.09-13.55 133.09-13.75ZM147.49-19.65L147.49-19.65Q148.99-19.65 150.03-18.65 151.09-17.65 151.09-15.85L151.09-15.85Q151.09-11.9 144.53-5.95L144.53-5.95Q138.99-0.95 135.59 0.15L135.59 0.15Q135.03 0.15 134.13-0.45 133.24-1.05 133.24-1.55L133.24-1.55Q133.24-2.65 135.63-9 138.03-15.35 138.94-16.1L138.94-16.1Q139.13-16.3 139.59-16.3 140.03-16.3 140.53-15.83 141.03-15.35 141.09-14.7L141.09-14.7Q141.09-14.65 138.61-8.9 136.13-3.15 136.28-2.05L136.28-2.05Q138.44-2.7 143.96-7.3 149.49-11.9 149.49-15.55L149.49-15.55Q149.49-17.75 147.28-18.75L147.28-18.75Q146.94-18.9 146.94-19.2L146.94-19.2Q146.94-19.65 147.49-19.65ZM151.53 0.65L151.53 0.65Q150.98 0.65 150.53 0.5L150.53 0.5Q147.33-0.4 147.33-3.1L147.33-3.1Q147.33-6.6 151.73-11.2 156.13-15.8 159.63-15.8L159.63-15.8Q160.78-15.8 161.51-15.18 162.23-14.55 162.23-13.65L162.23-13.65Q162.23-10.85 158.01-8.3 153.78-5.75 151.13-5.75L151.13-5.75Q150.73-5.75 150.43-5.85L150.43-5.85Q149.68-4.5 149.68-3L149.68-3Q149.68-0.4 152.16-0.4 154.63-0.4 158.58-3.75L158.58-3.75Q161.63-6.2 163.78-8.95L163.78-8.95Q164.23-9.55 164.56-9.55 164.88-9.55 164.88-9.25 164.88-8.95 164.48-8.4L164.48-8.4Q161.78-4.85 157.98-2.1 154.18 0.65 151.53 0.65ZM160.98-13.75L160.98-13.75Q160.98-14.35 159.71-14.35 158.43-14.35 156.08-12.4L156.08-12.4Q152.93-9.8 151.18-6.95L151.18-6.95Q151.48-6.85 151.83-6.85L151.83-6.85Q153.73-6.85 156.91-8.88 160.08-10.9 160.88-13.3L160.88-13.3Q160.98-13.55 160.98-13.75ZM163.78-2.5Q163.78-1 165.43-1 167.08-1 169.68-2.75 172.28-4.5 174.73-7.5L174.73-7.5Q175.33-8.3 175.68-8.3 176.03-8.3 176.03-8L176.03-8Q176.03-7.7 173.98-5.4L173.98-5.4Q168.98 0.1 165.63 0.1L165.63 0.1Q163.98 0.1 162.83-0.68 161.68-1.45 161.68-3.08 161.68-4.7 162.53-6.85L162.53-6.85Q163.98-10.25 167.18-15.4L167.18-15.4Q173.03-24.9 175.48-24.9L175.48-24.9Q175.98-24.9 176.51-24.53 177.03-24.15 177.08-23.7L177.08-23.7Q175.93-22.15 172.66-17.75 169.38-13.35 168.13-11.43 166.88-9.5 166.26-8.55 165.63-7.6 165.33-7.08 165.03-6.55 164.63-5.7L164.63-5.7Q163.78-4 163.78-2.5ZM187.03-10.6L187.03-10.6Q187.03-8.85 183.68-4.75L183.68-4.75Q179.73 0.1 176.93 0.1L176.93 0.1 176.13 0.1Q174.83 0.1 174.08-1.25L174.08-1.25Q173.48-2.2 173.48-3.35L173.48-3.35Q173.48-6.35 177.85-11.78 182.23-17.2 184.93-17.2L184.93-17.2Q187.48-17.2 187.48-14.5L187.48-14.5Q187.48-13.8 187.23-12.7L187.23-12.7Q187.28-12.55 188.18-12.55 189.08-12.55 190.93-13.5L190.93-13.5Q190.88-12.65 186.98-11.05L186.98-11.05Q187.03-10.85 187.03-10.6ZM183.78-13.2L183.78-13.2Q182.08-13.2 178.95-9.2 175.83-5.2 175.83-3.3 175.83-1.4 177.03-1.4L177.03-1.4Q179.18-1.4 182.48-5.3 185.78-9.2 185.78-10.9L185.78-10.9Q184.98-11.35 183.78-13.2ZM206.88-11.3L206.88-11.3Q206.88-7.25 202.25-3.63 197.63 0 194.23 0L194.23 0Q191.98 0 190.95-0.3 189.93-0.6 188.68-2.1L188.68-2.1Q187.83-1.4 186.38 1.48 184.93 4.35 184.93 6.4L184.93 6.4Q184.93 7.35 185.88 8.9L185.88 8.9Q185.98 9.15 185.73 9.33 185.48 9.5 185.35 9.5 185.23 9.5 185.13 9.45L185.13 9.45Q183.03 8.3 183.03 4.98 183.03 1.65 188.55-6.53 194.08-14.7 196.18-15.4L196.18-15.4Q196.68-15.5 196.83-15.5L196.83-15.5Q197.68-15.5 197.68-13.65L197.68-13.65Q198.18-14.15 199.73-14.6L199.73-14.6Q201.63-15.1 202.43-15.1L202.43-15.1Q204.23-15.1 205.55-14.08 206.88-13.05 206.88-11.3ZM204.33-11.8L204.33-11.8Q204.33-13.7 202.08-13.7 199.83-13.7 197.98-12.75L197.98-12.75Q197.13-12.35 193.28-8.35 189.43-4.35 189.43-3.2L189.43-3.2Q189.43-2.3 190.8-1.85 192.18-1.4 193.58-1.4L193.58-1.4Q196.33-1.4 200.33-4.53 204.33-7.65 204.33-11.8ZM209.42 0.65L209.42 0.65Q208.87 0.65 208.42 0.5L208.42 0.5Q205.22-0.4 205.22-3.1L205.22-3.1Q205.22-6.6 209.62-11.2 214.02-15.8 217.52-15.8L217.52-15.8Q218.67-15.8 219.4-15.18 220.12-14.55 220.12-13.65L220.12-13.65Q220.12-10.85 215.9-8.3 211.67-5.75 209.02-5.75L209.02-5.75Q208.62-5.75 208.32-5.85L208.32-5.85Q207.57-4.5 207.57-3L207.57-3Q207.57-0.4 210.05-0.4 212.52-0.4 216.47-3.75L216.47-3.75Q219.52-6.2 221.67-8.95L221.67-8.95Q222.12-9.55 222.45-9.55 222.77-9.55 222.77-9.25 222.77-8.95 222.37-8.4L222.37-8.4Q219.67-4.85 215.87-2.1 212.07 0.65 209.42 0.65ZM218.87-13.75L218.87-13.75Q218.87-14.35 217.6-14.35 216.32-14.35 213.97-12.4L213.97-12.4Q210.82-9.8 209.07-6.95L209.07-6.95Q209.37-6.85 209.72-6.85L209.72-6.85Q211.62-6.85 214.8-8.88 217.97-10.9 218.77-13.3L218.77-13.3Q218.87-13.55 218.87-13.75ZM229.92 0.25L229.92 0.25Q226.17 0.25 226.17-3.9L226.17-3.9Q226.17-6 227.27-8.5 228.37-11 229.67-12.7L229.67-12.7Q229.42-12.65 229.02-12.65L229.02-12.65Q227.82-12.65 227.02-14.35L227.02-14.35 223.32-9.55Q220.22-5.7 219.72-5.7L219.72-5.7Q219.47-5.7 219.47-5.9L219.47-5.9Q219.47-6.4 220.32-7.35L220.32-7.35Q224.67-12.4 226.47-15.9L226.47-15.9Q227.62-20.25 229.37-20.25L229.37-20.25Q230.52-20.25 230.52-19.25 230.52-18.25 229.27-16.7L229.27-16.7 228.07-15.1Q228.07-14.05 229.62-14.05L229.62-14.05Q230.52-14.05 231.62-14.7L231.62-14.7 232.92-15.5Q233.02-15.55 233.42-15.55 233.82-15.55 234.27-15.05 234.72-14.55 234.57-14.15L234.57-14.15 231.12-9.8Q227.92-5.7 227.92-3.33 227.92-0.95 230.12-0.95L230.12-0.95Q232.42-0.95 235.77-3.4L235.77-3.4Q237.77-4.85 239.42-6.65L239.42-6.65Q240.97-8.45 241.12-8.45L241.12-8.45Q241.47-8.45 241.47-8.08 241.47-7.7 241.02-7.2L241.02-7.2 239.42-5.4Q238.07-4 236.42-2.7L236.42-2.7Q232.47 0.25 229.92 0.25Z" opacity="1" transform="matrix(1,0,0,1,0,0)" fill="#6c757d" class="slogan-text-1" data-fill-palette-color="secondary" id="text-1"></path></svg></g></svg></g></svg></g></svg></g><g transform="matrix(1,0,0,1,0,36.17233806713375)"><svg viewBox="0 0 241.17683282640004 240.8855564582522" height="240.8855564582522" width="241.17683282640004"><g><svg xmlns="http://www.w3.org/2000/svg" xmlns:xlink="http://www.w3.org/1999/xlink" version="1.1" x="0" y="0" viewBox="3.7 4.3 82.8 82.7" enable-background="new 0 0 90 90" xml:space="preserve" height="240.8855564582522" width="241.17683282640004" class="icon-icon-0" data-fill-palette-color="accent" id="icon-0"><g fill="#ff7a57" data-fill-palette-color="accent"><path fill="#ff7a57" d="M45.1 87C22.3 87 3.8 68.5 3.8 45.7S22.3 4.3 45.1 4.3c22.8 0 41.4 18.6 41.4 41.4S67.9 87 45.1 87zM45.1 6.3C23.4 6.3 5.8 23.9 5.8 45.7 5.8 67.4 23.4 85 45.1 85c21.7 0 39.4-17.7 39.4-39.4C84.5 23.9 66.8 6.3 45.1 6.3z" data-fill-palette-color="accent"></path><path fill="#ff7a57" d="M45 87c-12 0-22.4-18.6-22.4-41.4S33 4.3 45 4.3v2c-11 0-20.4 17.7-20.4 39.4C24.6 67.4 34 85 45 85V87z" data-fill-palette-color="accent"></path><path fill="#ff7a57" d="M45 87v-2c11 0 20.4-17.7 20.4-39.4C65.4 23.9 56 6.3 45 6.3v-2c12 0 22.4 18.6 22.4 41.4S57 87 45 87z" data-fill-palette-color="accent"></path><path fill="#ff7a57" d="M43 87v-2c0 0-0.6 0.2-0.7 0.2 0.9-1.4 2.2-15.9 2.2-39.6S43.3 7.4 42.4 6C42.4 6.1 43 6.3 43 6.3v-2c1 0 1.9 0 2.8 12.8 0.5 7.6 0.7 17.8 0.7 28.6s-0.2 21-0.7 28.6C45 87 44 87 43 87z" data-fill-palette-color="accent"></path><path fill="#ff7a57" d="M86.4 43h-2c0-11-17.7-20.4-39.4-20.4C23.4 22.6 5.7 32 5.7 43h-2c0-12 18.6-22.4 41.4-22.4C67.9 20.6 86.4 31 86.4 43z" data-fill-palette-color="accent"></path><path fill="#ff7a57" d="M86.4 44h-2c0-2-13.5-5.7-39.4-5.7C19.2 38.3 5.7 42 5.7 44h-2c0-7 27.1-7.7 41.4-7.7C59.4 36.3 86.4 37 86.4 44z" data-fill-palette-color="accent"></path><path fill="#ff7a57" d="M45.1 73.4C22.3 73.4 3.7 63 3.7 51h2c0 11 17.7 20.4 39.4 20.4 21.7 0 39.4-9.4 39.4-20.4h2C86.4 63 67.9 73.4 45.1 73.4z" data-fill-palette-color="accent"></path><path fill="#ff7a57" d="M45.1 57.3C25 57.3 3.7 54 3.7 47h2c0 2 2.9 3.8 11 5.6 7.6 1.7 17.6 2.7 28.3 2.7 10.7 0 20.8-1 28.3-2.7 8.1-1.9 11-3.6 11-5.6h2C86.4 54 65.1 57.3 45.1 57.3z" data-fill-palette-color="accent"></path></g></svg></g></svg></g></svg></g></svg></g><defs></defs></svg><rect width="395.52" height="178.28172522371975" fill="none" stroke="none" visibility="hidden"></rect></g></svg></g></svg>